<svg xmlns="http://www.w3.org/2000/svg" enable-background="new 0 0 512 512" viewBox="0 0 512 512"><path d="M476.906,128.827c-15.227-26.368-52.79-37.244-105.792-30.666c-8.913,1.114-18.039,2.653-27.429,4.722C323.63,40.862,291.479,1.336,254.553,1.336c-8.86,0-17.455,2.281-25.679,6.632c2.759,2.334,5.093,5.146,7.003,8.223c6.048-2.759,12.309-4.244,18.676-4.244c31.196,0,59.634,36.926,78.203,93.43c-24.034,5.942-49.288,14.696-74.808,25.891c-28.332-12.786-55.814-22.336-81.334-28.491c3.608-10.876,7.587-21.01,11.937-30.241c-3.289-1.379-6.314-3.183-9.073-5.412c-4.828,10.134-9.285,21.275-13.264,33.319c-63.082-13.264-112.795-5.04-131.152,26.74c-4.881,8.383-7.163,17.88-7.163,28.172c0,29.021,18.517,64.515,51.145,100.38c-43.611,48.28-61.65,95.817-43.24,127.756c7.534,12.999,20.267,22.071,37.085,27.217c-0.106-0.53-0.106-1.061-0.106-1.645c0-3.077,0.371-6.048,1.114-8.913c-13.105-4.51-23.026-11.831-28.862-21.965c-15.598-26.952,2.069-69.98,41.595-114.227c16.925,17.508,37.139,34.963,60.058,51.782c3.077,30.825,8.542,59.369,15.97,84.517c-4.51,0.902-8.913,1.751-13.211,2.388c0.587,2.863,0.791,6.565,0.318,10.664c5.252-0.796,10.611-1.751,16.076-2.918c20.002,61.278,51.994,100.274,88.708,100.274c37.139,0,69.502-40.004,89.504-102.662c7.746,1.698,15.333,3.024,22.707,3.979c-0.373-3.366-0.065-7.258,0.637-10.558c-6.632-0.902-13.37-2.069-20.267-3.555c6.738-23.45,11.831-49.819,14.855-78.15c25.201-18.092,47.166-37.139,65.258-56.132c38.783,43.611,55.443,85.737,39.738,112.954c-5.093,8.807-13.688,15.598-25.201,20.161c1.167,3.342,1.857,6.95,1.963,10.664c14.696-5.359,25.732-13.954,32.417-25.52c18.198-31.568,0.796-78.362-41.702-126.112C477.543,207.773,495.263,160.607,476.906,128.827z M335.886,115.563c6.101,20.48,10.876,43.24,14.113,67.486c-23.363-16.113-51.486-32.504-79.158-45.787C293.071,127.978,314.982,120.656,335.886,115.563z M351.75,313.83c-29.217,20.901-61.126,39.237-93.908,54.276c-34.014-15.244-69.611-35.518-100.911-58.361c-3.562-36.402-3.352-74.153-0.053-108.286c32.06-23.326,67.266-43.491,100.858-58.466c33.176,15.04,65.456,34.012,93.908,54.169C355.841,235.584,355.763,276.862,351.75,313.83z M244.737,137.263c-31.547,14.913-60.884,32.159-86.32,49.925c3.236-26.74,8.277-51.622,14.855-73.693C195.874,118.852,220.014,126.811,244.737,137.263z M44.242,132.488c10.558-18.251,35.017-27.005,67.698-27.005c15.386,0,32.523,1.91,50.933,5.73c-7.481,25.042-12.998,53.48-16.076,84.198c-22.973,16.925-43.24,34.486-60.112,52.1C46.523,202.998,28.538,159.599,44.242,132.488z M94.273,255.735c14.696-15.439,31.939-30.878,51.251-45.734c-2.281,27.865-2.493,59.892-0.106,91.255C126.159,286.454,108.916,271.067,94.273,255.735z M158.47,324.069c27.024,18.819,56.798,35.873,86.374,49.766c-24.777,10.611-48.864,18.622-71.253,23.981C166.905,375.639,161.759,350.703,158.47,324.069z M254.553,500.053c-30.984,0-59.21-36.343-77.779-92.104c25.467-6.048,52.896-15.545,81.175-28.225c25.625,11.248,50.986,19.948,75.126,25.838C314.558,462.702,285.961,500.053,254.553,500.053z M336.204,395.429c-22.097-5.303-45.515-13.348-65.311-21.699c26.514-12.685,53.653-28.233,79.264-45.681C346.974,352.242,342.2,374.949,336.204,395.429z M363.369,305.288c2.701-32.303,2.711-66.487-0.106-99.637c21.54,16.182,40.534,32.947,56.398,49.66C403.797,272.182,384.803,289.159,363.369,305.288z M361.883,191.379c-3.077-28.438-8.277-54.806-15.067-78.309c8.754-1.91,17.296-3.342,25.625-4.404c9.444-1.167,18.357-1.751,26.74-1.751c33.902,0,58.308,9.497,68.547,27.217c15.492,26.846-1.857,69.396-40.853,113.326C408.837,228.464,386.978,209.471,361.883,191.379z M254.518,182.573c40.584,0,73.427,32.896,73.427,73.427s-32.843,73.427-73.427,73.427c-40.532,0-73.375-32.896-73.375-73.427S213.987,182.573,254.518,182.573z M175.273,36.793c0-15.473,12.538-28.03,28.01-28.03c15.493,0,28.03,12.558,28.03,28.03s-12.538,28.03-28.03,28.03C187.811,64.824,175.273,52.266,175.273,36.793z M139.421,409.076c0,15.473-12.538,28.03-28.03,28.03c-15.473,0-28.01-12.557-28.01-28.03s12.538-28.03,28.01-28.03C126.883,381.045,139.421,393.603,139.421,409.076z M433.231,409.076c0,15.473-12.538,28.03-28.03,28.03c-15.472,0-28.01-12.557-28.01-28.03s12.538-28.03,28.01-28.03C420.693,381.045,433.231,393.603,433.231,409.076z"/></svg>